<mxfile host="app.diagrams.net" modified="2023-11-09T13:42:46.579Z" agent="Mozilla/5.0 (Windows NT 10.0; Win64; x64) AppleWebKit/537.36 (KHTML, like Gecko) Chrome/119.0.0.0 Safari/537.36" etag="Qs2GukbX4CxDiu9cI_36" version="22.1.0" type="google">
  <diagram name="Página-1" id="oKIlooJLRSVnscNaMvM3">
    <mxGraphModel grid="0" page="0" gridSize="10" guides="1" tooltips="1" connect="1" arrows="1" fold="1" pageScale="1" pageWidth="827" pageHeight="1169" math="0" shadow="0">
      <root>
        <mxCell id="0" />
        <mxCell id="1" parent="0" />
        <mxCell id="5hi7N3uMOixt7sAf-5uX-16" style="edgeStyle=orthogonalEdgeStyle;rounded=0;orthogonalLoop=1;jettySize=auto;html=1;entryX=0.5;entryY=0;entryDx=0;entryDy=0;" edge="1" parent="1" source="5hi7N3uMOixt7sAf-5uX-18" target="5hi7N3uMOixt7sAf-5uX-20">
          <mxGeometry relative="1" as="geometry" />
        </mxCell>
        <mxCell id="5hi7N3uMOixt7sAf-5uX-17" value="Text" style="edgeLabel;html=1;align=center;verticalAlign=middle;resizable=0;points=[];" connectable="0" vertex="1" parent="5hi7N3uMOixt7sAf-5uX-16">
          <mxGeometry x="-0.2" y="1" relative="1" as="geometry">
            <mxPoint as="offset" />
          </mxGeometry>
        </mxCell>
        <mxCell id="5hi7N3uMOixt7sAf-5uX-18" value="Inicio" style="ellipse;whiteSpace=wrap;html=1;" vertex="1" parent="1">
          <mxGeometry x="-318" y="148" width="120" height="80" as="geometry" />
        </mxCell>
        <mxCell id="5hi7N3uMOixt7sAf-5uX-19" style="edgeStyle=orthogonalEdgeStyle;rounded=0;orthogonalLoop=1;jettySize=auto;html=1;entryX=0.5;entryY=0;entryDx=0;entryDy=0;" edge="1" parent="1" source="5hi7N3uMOixt7sAf-5uX-20" target="5hi7N3uMOixt7sAf-5uX-22">
          <mxGeometry relative="1" as="geometry" />
        </mxCell>
        <mxCell id="5hi7N3uMOixt7sAf-5uX-20" value="Inicia sesión" style="" vertex="1" parent="1">
          <mxGeometry x="-313" y="268" width="110" height="50" as="geometry" />
        </mxCell>
        <mxCell id="5hi7N3uMOixt7sAf-5uX-21" value="" style="edgeStyle=orthogonalEdgeStyle;rounded=0;orthogonalLoop=1;jettySize=auto;html=1;" edge="1" parent="1" source="5hi7N3uMOixt7sAf-5uX-22" target="5hi7N3uMOixt7sAf-5uX-27">
          <mxGeometry relative="1" as="geometry" />
        </mxCell>
        <mxCell id="5hi7N3uMOixt7sAf-5uX-22" value="   Acceder a la sección de Registro &#xa;de alimentación" style="" vertex="1" parent="1">
          <mxGeometry x="-351" y="358" width="186" height="124" as="geometry" />
        </mxCell>
        <mxCell id="5hi7N3uMOixt7sAf-5uX-23" value="" style="edgeStyle=orthogonalEdgeStyle;rounded=0;orthogonalLoop=1;jettySize=auto;html=1;" edge="1" parent="1" source="5hi7N3uMOixt7sAf-5uX-27">
          <mxGeometry relative="1" as="geometry">
            <mxPoint x="108" y="420" as="targetPoint" />
          </mxGeometry>
        </mxCell>
        <mxCell id="5hi7N3uMOixt7sAf-5uX-24" value="Si" style="edgeLabel;html=1;align=center;verticalAlign=middle;resizable=0;points=[];" connectable="0" vertex="1" parent="5hi7N3uMOixt7sAf-5uX-23">
          <mxGeometry x="-0.2728" relative="1" as="geometry">
            <mxPoint as="offset" />
          </mxGeometry>
        </mxCell>
        <mxCell id="5hi7N3uMOixt7sAf-5uX-25" style="edgeStyle=orthogonalEdgeStyle;rounded=0;orthogonalLoop=1;jettySize=auto;html=1;" edge="1" parent="1" source="5hi7N3uMOixt7sAf-5uX-27">
          <mxGeometry relative="1" as="geometry">
            <mxPoint x="8" y="548" as="targetPoint" />
          </mxGeometry>
        </mxCell>
        <mxCell id="5hi7N3uMOixt7sAf-5uX-26" value="No" style="edgeLabel;html=1;align=center;verticalAlign=middle;resizable=0;points=[];" connectable="0" vertex="1" parent="5hi7N3uMOixt7sAf-5uX-25">
          <mxGeometry x="0.3" y="-2" relative="1" as="geometry">
            <mxPoint as="offset" />
          </mxGeometry>
        </mxCell>
        <mxCell id="5hi7N3uMOixt7sAf-5uX-27" value="¿Hay registro?" style="rhombus;whiteSpace=wrap;html=1;" vertex="1" parent="1">
          <mxGeometry x="-32" y="380" width="80" height="80" as="geometry" />
        </mxCell>
        <mxCell id="5hi7N3uMOixt7sAf-5uX-28" style="edgeStyle=orthogonalEdgeStyle;rounded=0;orthogonalLoop=1;jettySize=auto;html=1;entryX=1;entryY=0.5;entryDx=0;entryDy=0;exitX=0.5;exitY=1;exitDx=0;exitDy=0;" edge="1" parent="1" source="5hi7N3uMOixt7sAf-5uX-29" target="5hi7N3uMOixt7sAf-5uX-30">
          <mxGeometry relative="1" as="geometry">
            <mxPoint x="172" y="628" as="targetPoint" />
            <Array as="points">
              <mxPoint x="172" y="588" />
            </Array>
          </mxGeometry>
        </mxCell>
        <mxCell id="5hi7N3uMOixt7sAf-5uX-29" value="Muestra Registro de alimentación" style="rounded=0;whiteSpace=wrap;html=1;" vertex="1" parent="1">
          <mxGeometry x="112" y="390" width="120" height="60" as="geometry" />
        </mxCell>
        <mxCell id="5hi7N3uMOixt7sAf-5uX-30" value="Fin" style="ellipse;whiteSpace=wrap;html=1;" vertex="1" parent="1">
          <mxGeometry x="-52" y="548" width="120" height="80" as="geometry" />
        </mxCell>
      </root>
    </mxGraphModel>
  </diagram>
</mxfile>
